<?xml version="1.0" encoding="UTF-8"?>
<svg width="937pt" height="937pt" version="1.1" viewBox="-93 0 937 937.5" xmlns="http://www.w3.org/2000/svg">
<g>
<path d="m608.82 363.48l-21.07 23.031 95.824 87.844c22.559 20.754 35.418 49.996 35.426 80.641v382.5h31.25v-382.5c-0.039062-39.414-16.57-77-45.594-103.68z"/>
<path d="m484.62 0h-406.25c-43.125 0.054688-78.07 35-78.125 78.125v781.25c0.054688 43.125 35 78.07 78.125 78.125h390.62v-27.953c-0.074219-70.387 20.762-139.23 59.875-197.75 4.1406-6.2031 3.3086-14.457-1.9531-19.719l-109.38-109.38c-10.109-10.121-15.469-24.039-14.762-38.324 0.71094-14.293 7.4258-27.605 18.48-36.676 21.293-16.277 51.406-13.953 69.953 5.3867l154.23 154.24 22.094-22.094-104.8-104.83v-462.28c-0.054688-43.125-35-78.07-78.125-78.125zm46.875 509.16l-18.188-18.188c-29.977-30.625-78.188-33.816-111.94-7.3984-17.852 14.672-28.684 36.211-29.812 59.301-1.125 23.086 7.5469 45.574 23.891 61.926l100.47 100.47c-37.469 60.379-57.562 129.93-58.062 200.98h-359.48c-25.883 0-46.875-20.992-46.875-46.875v-46.875h390.62v-31.25h-390.62v-656.25h500zm0-415.41h-500v-15.625c0-25.883 20.992-46.875 46.875-46.875h406.25c25.883 0 46.875 20.992 46.875 46.875z"/>
<path d="m94 281.25h62.5c17.262 0 31.25-13.988 31.25-31.25v-62.5c0-17.262-13.988-31.25-31.25-31.25h-62.5c-17.262 0-31.25 13.988-31.25 31.25v62.5c0 17.262 13.988 31.25 31.25 31.25zm0-93.75h62.5v62.5h-62.5z"/>
<path d="m250.25 281.25h62.5c17.262 0 31.25-13.988 31.25-31.25v-62.5c0-17.262-13.988-31.25-31.25-31.25h-62.5c-17.262 0-31.25 13.988-31.25 31.25v62.5c0 17.262 13.988 31.25 31.25 31.25zm0-93.75h62.5v62.5h-62.5z"/>
<path d="m406.5 281.25h62.5c17.262 0 31.25-13.988 31.25-31.25v-62.5c0-17.262-13.988-31.25-31.25-31.25h-62.5c-17.262 0-31.25 13.988-31.25 31.25v62.5c0 17.262 13.988 31.25 31.25 31.25zm0-93.75h62.5v62.5h-62.5z"/>
<path d="m94 437.5h62.5c17.262 0 31.25-13.988 31.25-31.25v-62.5c0-17.262-13.988-31.25-31.25-31.25h-62.5c-17.262 0-31.25 13.988-31.25 31.25v62.5c0 17.262 13.988 31.25 31.25 31.25zm0-93.75h62.5v62.5h-62.5z"/>
<path d="m94 593.75h62.5c17.262 0 31.25-13.988 31.25-31.25v-62.5c0-17.262-13.988-31.25-31.25-31.25h-62.5c-17.262 0-31.25 13.988-31.25 31.25v62.5c0 17.262 13.988 31.25 31.25 31.25zm0-93.75h62.5v62.5h-62.5z"/>
<path d="m250.25 437.5h62.5c17.262 0 31.25-13.988 31.25-31.25v-62.5c0-17.262-13.988-31.25-31.25-31.25h-62.5c-17.262 0-31.25 13.988-31.25 31.25v62.5c0 17.262 13.988 31.25 31.25 31.25zm0-93.75h62.5v62.5h-62.5z"/>
<path d="m406.5 437.5h62.5c17.262 0 31.25-13.988 31.25-31.25v-62.5c0-17.262-13.988-31.25-31.25-31.25h-62.5c-17.262 0-31.25 13.988-31.25 31.25v62.5c0 17.262 13.988 31.25 31.25 31.25zm0-93.75h62.5v62.5h-62.5z"/>
<path d="m250.25 593.75h62.5c17.262 0 31.25-13.988 31.25-31.25v-62.5c0-17.262-13.988-31.25-31.25-31.25h-62.5c-17.262 0-31.25 13.988-31.25 31.25v62.5c0 17.262 13.988 31.25 31.25 31.25zm0-93.75h62.5v62.5h-62.5z"/>
<path d="m94 750h62.5c17.262 0 31.25-13.988 31.25-31.25v-62.5c0-17.262-13.988-31.25-31.25-31.25h-62.5c-17.262 0-31.25 13.988-31.25 31.25v62.5c0 17.262 13.988 31.25 31.25 31.25zm0-93.75h62.5v62.5h-62.5z"/>
<path d="m250.25 750h62.5c17.262 0 31.25-13.988 31.25-31.25v-62.5c0-17.262-13.988-31.25-31.25-31.25h-62.5c-17.262 0-31.25 13.988-31.25 31.25v62.5c0 17.262 13.988 31.25 31.25 31.25zm0-93.75h62.5v62.5h-62.5z"/>
<path d="m265.88 843.75h31.25v31.25h-31.25z"/>
</g>
</svg>
