<?xml version="1.0" encoding="UTF-8"?>
<svg enable-background="new 0 0 511.999 511.999" version="1.1" viewBox="0 0 511.999 511.999" xml:space="preserve" xmlns="http://www.w3.org/2000/svg">
  <path d="m214.68 402.83c-24.829 0-45.029 20.2-45.029 45.029s20.2 45.029 45.029 45.029 45.029-20.2 45.029-45.029c-1e-3 -24.829-20.201-45.029-45.029-45.029zm0 64.914c-10.966 0-19.887-8.922-19.887-19.887 0-10.966 8.922-19.887 19.887-19.887s19.887 8.922 19.887 19.887c0 10.967-8.922 19.887-19.887 19.887z"/>
  <path d="m372.63 402.83c-24.829 0-45.029 20.2-45.029 45.029s20.2 45.029 45.029 45.029 45.029-20.2 45.029-45.029c-1e-3 -24.829-20.201-45.029-45.029-45.029zm0 64.914c-10.966 0-19.887-8.922-19.887-19.887 0-10.966 8.922-19.887 19.887-19.887 10.966 0 19.887 8.922 19.887 19.887 0 10.967-8.922 19.887-19.887 19.887z"/>
  <path d="m383.72 165.76h-180.15c-6.943 0-12.571 5.628-12.571 12.571s5.629 12.571 12.571 12.571h180.15c6.943 0 12.571-5.628 12.571-12.571 0-6.944-5.628-12.571-12.571-12.571z"/>
  <path d="m373.91 231.04h-160.54c-6.943 0-12.571 5.628-12.571 12.571s5.628 12.571 12.571 12.571h160.54c6.943 0 12.571-5.628 12.571-12.571 0-6.942-5.628-12.571-12.57-12.571z"/>
  <path d="m506.34 109.74c-4.794-5.884-11.898-9.258-19.489-9.258h-391.57l-7.908-38.389c-1.651-8.008-7.113-14.732-14.614-17.989l-55.177-23.95c-6.37-2.767-13.773 0.156-16.536 6.524-2.766 6.37 0.157 13.774 6.524 16.537l55.178 23.951 60.826 295.26c2.396 11.628 12.752 20.068 24.625 20.068h301.17c6.943 0 12.571-5.628 12.571-12.571s-5.628-12.571-12.571-12.571h-301.16l-7.399-35.916h310.89c11.872 0 22.229-8.44 24.624-20.068l35.163-170.68c1.531-7.432-0.341-15.071-5.136-20.954zm-54.651 186.56h-316.07l-35.161-170.67 386.39 1e-3 -35.161 170.67z"/>
</svg>
