<?xml version="1.0" encoding="UTF-8"?>
<svg width="512pt" height="512pt" viewBox="0 0 512 512" xmlns="http://www.w3.org/2000/svg">
<path d="m456.88 0h-194.31c-3.9766 0-7.793 1.582-10.605 4.3945l-235.86 235.85c-21.484 21.492-21.484 56.457 0 77.941l177.7 177.7c10.375 10.375 24.215 16.09 38.965 16.094h0.003906c14.754 0 28.594-5.7188 38.973-16.098l235.85-235.85c2.8125-2.8125 4.3945-6.6289 4.3945-10.605l0.003906-194.31c-0.003906-30.387-24.73-55.109-55.117-55.109zm25.113 243.21-231.46 231.46c-4.7109 4.7148-11.02 7.3086-17.758 7.3086-6.7422 0-13.047-2.5938-17.758-7.3047l-177.7-177.7c-9.7891-9.7891-9.7891-25.727 0-35.52l231.46-231.45h188.1c13.848 0 25.117 11.266 25.117 25.113z"/>
<path d="m379.79 85.078c-12.59 0-24.426 4.9062-33.328 13.809-8.9023 8.8984-13.805 20.734-13.805 33.324 0 12.59 4.9023 24.426 13.805 33.328 8.9023 8.9023 20.738 13.805 33.328 13.805 12.586 0 24.422-4.9023 33.324-13.805 8.9023-8.9023 13.805-20.738 13.805-33.328 0-12.59-4.9023-24.426-13.801-33.324-8.9023-8.9023-20.738-13.809-33.328-13.809zm12.113 59.246c-3.2344 3.2383-7.5391 5.0195-12.113 5.0195-4.5781 0-8.8789-1.7812-12.113-5.0195-3.2383-3.2344-5.0195-7.5391-5.0195-12.113 0-4.5742 1.7812-8.8789 5.0195-12.113 3.2344-3.2383 7.5391-5.0195 12.113-5.0195 4.5742 0 8.875 1.7812 12.113 5.0195 3.2383 3.2344 5.0195 7.5391 5.0195 12.113 0 4.5742-1.7852 8.8789-5.0195 12.113z"/>
</svg>
