<svg width="5" height="20" viewBox="0 0 5 20" fill="none" xmlns="http://www.w3.org/2000/svg">
  <path stroke="none" d="M4.8 0V7.8609C4.8 8.55264 4.75759 9.23872 4.67277 9.91917C4.58795 10.5996 4.47615 11.2932 4.33735 12H0.462651C0.323855 11.2932 0.212049 10.5996 0.127229 9.91917C0.0424092 9.23872 0 8.55264 0 7.8609L0 0H4.8Z" />
  <path stroke="none" d="M0 16.7999C0 16.4631 0.061363 16.1496 0.184091 15.8596C0.306819 15.5695 0.474999 15.3169 0.688636 15.1017C0.902274 14.8865 1.15454 14.7157 1.44545 14.5894C1.73637 14.4631 2.05454 14.3999 2.4 14.3999C2.73637 14.3999 3.05 14.4631 3.34091 14.5894C3.63182 14.7157 3.88636 14.8865 4.10455 15.1017C4.32273 15.3169 4.49318 15.5695 4.61591 15.8596C4.73864 16.1496 4.8 16.4631 4.8 16.7999C4.8 17.1367 4.73864 17.4525 4.61591 17.7473C4.49318 18.042 4.32273 18.297 4.10455 18.5122C3.88636 18.7274 3.63182 18.8958 3.34091 19.0174C3.05 19.1391 2.73637 19.1999 2.4 19.1999C2.05454 19.1999 1.73637 19.1391 1.44545 19.0174C1.15454 18.8958 0.902274 18.7274 0.688636 18.5122C0.474999 18.297 0.306819 18.042 0.184091 17.7473C0.061363 17.4525 0 17.1367 0 16.7999Z" />
</svg>
