<?xml version="1.0" encoding="UTF-8"?>
<!DOCTYPE svg  PUBLIC '-//W3C//DTD SVG 1.1//EN'  'http://www.w3.org/Graphics/SVG/1.1/DTD/svg11.dtd'>
<svg enable-background="new 0 0 60 60" version="1.1" viewBox="0 0 60 60" xml:space="preserve" xmlns="http://www.w3.org/2000/svg">
	<path d="m10 25.465h13c0.553 0 1-0.448 1-1s-0.447-1-1-1h-13c-0.553 0-1 0.448-1 1s0.447 1 1 1z"/>
	<path d="m36 29.465h-26c-0.553 0-1 0.448-1 1s0.447 1 1 1h26c0.553 0 1-0.448 1-1s-0.447-1-1-1z"/>
	<path d="m36 35.465h-26c-0.553 0-1 0.448-1 1s0.447 1 1 1h26c0.553 0 1-0.448 1-1s-0.447-1-1-1z"/>
	<path d="m54.072 2.535l-34.142-0.07c-3.27 0-5.93 2.66-5.93 5.93v5.124l-8.07 0.017c-3.27 0-5.93 2.66-5.93 5.93v21.141c0 3.27 2.66 5.929 5.93 5.929h6.07v10c0 0.413 0.254 0.784 0.64 0.933 0.117 0.045 0.239 0.067 0.36 0.067 0.276 0 0.547-0.115 0.74-0.327l9.704-10.675 16.626-0.068c3.27 0 5.93-2.66 5.93-5.929v-0.113l5.26 5.786c0.193 0.212 0.464 0.327 0.74 0.327 0.121 0 0.243-0.022 0.36-0.067 0.386-0.149 0.64-0.52 0.64-0.933v-10h1.07c3.27 0 5.93-2.66 5.93-5.929v-21.143c0-3.269-2.659-5.929-5.928-5.93zm-10.072 38.001c0 2.167-1.763 3.929-3.934 3.929l-17.07 0.07c-0.28 1e-3 -0.548 0.12-0.736 0.327l-8.26 9.087v-8.414c0-0.552-0.447-1-1-1h-7.07c-2.167 0-3.93-1.763-3.93-3.929v-21.141c0-2.167 1.763-3.93 3.932-3.93l9.068-0.019h2e-3l25.068-0.052c2.167 0 3.93 1.763 3.93 3.93v21.142zm14-10.93c0 2.167-1.763 3.929-3.93 3.929h-2.07c-0.553 0-1 0.448-1 1v8.414l-5-5.5v-18.054c0-3.27-2.66-5.93-5.932-5.93l-24.068 0.049v-5.12c0-2.167 1.763-3.93 3.928-3.93l34.141 0.07h2e-3c2.167 0 3.93 1.763 3.93 3.93v21.142z"/>
</svg>
