<svg stroke-width="0" viewBox="0 0 20 21" xmlns="http://www.w3.org/2000/svg">
<path fill-rule="evenodd" clip-rule="evenodd" d="M2 7.45106H3.99976C4.00008 7.81757 4.20263 8.17032 4.55276 8.34539C5.04674 8.59238 5.64741 8.39216 5.8944 7.89818L6.11796 7.45106H13.882L14.1055 7.89818C14.3525 8.39216 14.9532 8.59238 15.4472 8.34539C15.7973 8.17032 15.9999 7.81757 16.0002 7.45106H18V9.45106H2V7.45106ZM15.118 5.45102H18C19.1046 5.45102 20 6.34645 20 7.45102V9.45102C20 10.2911 19.4821 11.0102 18.7481 11.3064C18.7516 11.3542 18.7533 11.4024 18.7533 11.4511C18.7533 11.597 18.7373 11.7425 18.7057 11.8849L17.1501 18.8849C16.9468 19.8 16.1351 20.4511 15.1977 20.4511H4.80208C3.86468 20.4511 3.05305 19.8 2.8497 18.8849L1.29415 11.8849C1.25085 11.6901 1.23757 11.4955 1.25125 11.3062C0.517632 11.0098 0 10.2908 0 9.45102V7.45102C0 6.34645 0.89543 5.45102 2 5.45102H4.88191L7.10555 1.00375C7.35254 0.509772 7.95321 0.309547 8.44719 0.556536C8.94117 0.803526 9.14139 1.4042 8.8944 1.89818L7.11798 5.45102H12.882L11.1055 1.89818C10.8586 1.4042 11.0588 0.803526 11.5528 0.556536C12.0467 0.309547 12.6474 0.509772 12.8944 1.00375L15.118 5.45102ZM4.80214 18.4511L3.24658 11.4511H16.7534L15.1978 18.4511H4.80214Z" />
</svg>
