<svg height="512pt" viewBox="-46 0 512 512" width="512pt" xmlns="http://www.w3.org/2000/svg"><path d="m345 60h-67.5l-31.5-42c-8.453125-11.269531-21.910156-18-36-18h-90c-14.089844 0-27.546875 6.730469-36 18l-81 108c-1.945312 2.597656-3 5.753906-3 9v332c0 24.8125 20.1875 45 45 45h240c24.8125 0 45-20.1875 45-45v-257.59375c4.984375.390625 9.988281.59375 15 .59375 41.355469 0 75-33.644531 75-75s-33.644531-75-75-75zm-45 407c0 8.269531-6.730469 15-15 15h-240c-8.269531 0-15-6.730469-15-15v-327l78-104c2.816406-3.757812 7.304688-6 12-6h90c4.695312 0 9.183594 2.242188 12 6l78 104v33.683594c-43.207031-12.28125-62.914062-35.285156-92.058594-55.226563 1.335938-4.25 2.058594-8.769531 2.058594-13.457031 0-24.8125-20.1875-45-45-45s-45 20.1875-45 45 20.1875 45 45 45c9.214844 0 17.785156-2.785156 24.925781-7.554688 27.695313 18.449219 54.207031 48.90625 110.074219 62.226563zm-135-347c-8.269531 0-15-6.730469-15-15s6.730469-15 15-15 15 6.730469 15 15-6.730469 15-15 15zm180 60c-5.011719 0-10.019531-.242188-15-.703125v-44.296875c0-3.246094-1.054688-6.402344-3-9l-27-36h45c24.8125 0 45 20.1875 45 45s-20.1875 45-45 45zm0 0"/><path d="m165 301c-8.269531 0-15-6.730469-15-15s6.730469-15 15-15c5.339844 0 10.320312 2.878906 13.003906 7.511719 4.144532 7.167969 13.320313 9.621093 20.492188 5.472656s9.621094-13.324219 5.476562-20.496094c-5.429687-9.382812-14.023437-16.351562-23.972656-19.882812v-17.605469c0-8.285156-6.714844-15-15-15s-15 6.714844-15 15v17.578125c-17.460938 6.195313-30 22.867187-30 42.421875 0 24.8125 20.1875 45 45 45 8.269531 0 15 6.730469 15 15s-6.730469 15-15 15c-5.339844 0-10.320312-2.878906-13.003906-7.511719-4.144532-7.167969-13.320313-9.621093-20.492188-5.472656s-9.621094 13.324219-5.476562 20.496094c5.429687 9.382812 14.023437 16.351562 23.972656 19.882812v17.605469c0 8.285156 6.714844 15 15 15s15-6.714844 15-15v-17.578125c17.460938-6.195313 30-22.867187 30-42.421875 0-24.8125-20.1875-45-45-45zm0 0"/></svg>