<svg stroke-width="0" viewBox="0 0 20 21" xmlns="http://www.w3.org/2000/svg">
<path fill-rule="evenodd" clip-rule="evenodd" d="M3.49704 5.45074C3.16883 4.91412 3 4.2536 3 3.45074C3 1.86783 4.19035 0.450745 6 0.450745C7.81199 0.450745 9.27327 1.66437 10 3.56457C10.7267 1.66437 12.188 0.450745 14 0.450745C15.8096 0.450745 17 1.86783 17 3.45074C17 4.2536 16.8312 4.91412 16.503 5.45074H18C19.1046 5.45074 20 6.34618 20 7.45074V9.45074C20 10.5553 19.1046 11.4507 18 11.4507V18.4507C18 19.5553 17.1046 20.4507 16 20.4507H4C2.89543 20.4507 2 19.5553 2 18.4507V11.4507C0.89543 11.4507 0 10.5553 0 9.45074V7.45074C0 6.34618 0.89543 5.45074 2 5.45074H3.49704ZM9 7.45074H2V9.45074H9V7.45074ZM18 9.45074H11V7.45074H18V9.45074ZM9 18.4507V11.4507H4V18.4507H9ZM16 18.4507H11V11.4507H16V18.4507ZM6 2.45074C5.37965 2.45074 5 2.90271 5 3.45074C5 4.70398 6.017 5.29987 8.42942 5.42523C8.1613 3.56234 7.16218 2.45074 6 2.45074ZM11.5 5.42523C11.7681 3.56234 12.7672 2.45074 13.9294 2.45074C14.5498 2.45074 14.9294 2.90271 14.9294 3.45074C14.9294 4.70398 13.9124 5.29987 11.5 5.42523Z" />
</svg>
