<svg stroke-width="0" viewBox="0 0 20 20" xmlns="http://www.w3.org/2000/svg">
<path fill-rule="evenodd" clip-rule="evenodd" d="M10 20C4.47715 20 0 15.5228 0 10C0 4.47715 4.47715 0 10 0C15.5228 0 20 4.47715 20 10C20 15.5228 15.5228 20 10 20ZM16.7268 14.6587C17.6442 13.3366 18.1818 11.7311 18.1818 9.99997C18.1818 5.48127 14.5187 1.81815 10 1.81815C5.48131 1.81815 1.81818 5.48127 1.81818 9.99997C1.81818 11.7311 2.35581 13.3366 3.2732 14.6588C4.29458 13.3096 6.69233 12.7293 9.98306 12.7273C7.95554 12.7193 6.36363 11.289 6.36363 8.18184C6.36363 6.14162 7.79917 4.54548 9.99999 4.54548C12.1947 4.54548 13.6364 6.29237 13.6364 8.36366C13.6364 11.3367 12.0256 12.7195 10.017 12.7273C13.3077 12.7293 15.7054 13.3096 16.7268 14.6587ZM15.4224 16.127C15.1563 15.1703 13.2449 14.5454 10 14.5454C6.75513 14.5454 4.84366 15.1703 4.57758 16.127C6.0212 17.4056 7.91996 18.1818 10 18.1818C12.0801 18.1818 13.9788 17.4056 15.4224 16.127ZM8.18182 8.18181C8.18182 10.2448 8.92564 10.9091 10 10.9091C11.0706 10.9091 11.8182 10.2713 11.8182 8.36363C11.8182 7.22765 11.1051 6.36363 10 6.36363C8.84885 6.36363 8.18182 7.10529 8.18182 8.18181Z" />
</svg>
