<?xml version="1.0" encoding="UTF-8"?>
<!DOCTYPE svg  PUBLIC '-//W3C//DTD SVG 1.1//EN'  'http://www.w3.org/Graphics/SVG/1.1/DTD/svg11.dtd'>
<svg width="486.8px" height="486.8px" enable-background="new 0 0 486.805 486.805" version="1.1" viewBox="0 0 486.805 486.805" xml:space="preserve" xmlns="http://www.w3.org/2000/svg">
	<path d="m261.4 17.983c-88.909 0-167.37 51.302-203.91 129.07l-25.416-52.774-32.072 15.448 52.783 109.56 109.56-52.786-15.451-32.066-57.077 27.491c30.833-65.308 96.818-108.35 171.58-108.35 104.67 0 189.82 85.154 189.82 189.82s-85.15 189.82-189.82 189.82c-61.631 0-119.66-30.109-155.23-80.539l-29.096 20.521c42.241 59.87 111.14 95.613 184.32 95.613 124.29 0 225.41-101.12 225.41-225.42s-101.12-225.42-225.41-225.42z"/>
</svg>
