<?xml version="1.0" encoding="UTF-8"?>
<svg enable-background="new 0 0 512 512" version="1.1" viewBox="0 0 512 512" xml:space="preserve" xmlns="http://www.w3.org/2000/svg">
  <path d="m119.47 337.07c-28.237 0-51.2 22.963-51.2 51.2s22.963 51.2 51.2 51.2 51.2-22.963 51.2-51.2-22.964-51.2-51.2-51.2zm0 85.333c-18.825 0-34.133-15.309-34.133-34.133 0-18.825 15.309-34.133 34.133-34.133s34.133 15.309 34.133 34.133-15.309 34.133-34.133 34.133z"/>
  <path d="m409.6 337.07c-28.237 0-51.2 22.963-51.2 51.2s22.963 51.2 51.2 51.2 51.2-22.963 51.2-51.2-22.963-51.2-51.2-51.2zm0 85.333c-18.825 0-34.133-15.309-34.133-34.133 0-18.825 15.309-34.133 34.133-34.133 18.825 0 34.133 15.309 34.133 34.133s-15.308 34.133-34.133 34.133z"/>
  <path d="m510.64 289.78l-76.8-119.47c-1.57-2.441-4.275-3.917-7.177-3.917h-93.866c-4.719 0-8.533 3.823-8.533 8.533v213.33c0 4.719 3.814 8.533 8.533 8.533h34.133v-17.067h-25.6v-196.26h80.674l72.926 113.44v82.825h-42.667v17.066h51.2c4.719 0 8.533-3.814 8.533-8.533v-93.867c1e-3 -1.63-0.468-3.243-1.356-4.616z"/>
  <path d="m375.47 277.33v-59.733h68.267v-17.067h-76.8c-4.719 0-8.533 3.823-8.533 8.533v76.8c0 4.719 3.814 8.533 8.533 8.533h128v-17.067h-119.47z"/>
  <path d="m332.8 106.67h-324.27c-4.71 0-8.533 3.823-8.533 8.533v273.07c0 4.719 3.823 8.533 8.533 8.533h68.267v-17.067h-59.733v-256h307.2v256h-162.13v17.067h170.67c4.719 0 8.533-3.814 8.533-8.533v-273.07c0-4.71-3.814-8.533-8.533-8.533z"/>
  <rect x="8.533" y="345.6" width="51.2" height="17.067"/>
  <rect x="179.2" y="345.6" width="145.07" height="17.067"/>
  <rect x="469.33" y="345.6" width="34.133" height="17.067"/>
  <rect x="34.133" y="140.8" width="298.67" height="17.067"/>
  <rect x="110.93" y="379.73" width="17.067" height="17.067"/>
  <rect x="401.07" y="379.73" width="17.067" height="17.067"/>
  <rect x="34.133" y="72.533" width="119.47" height="17.067"/>
  <rect y="72.533" width="17.067" height="17.067"/>
</svg>
