<svg viewBox="0 0 17 19" xmlns="http://www.w3.org/2000/svg">
  <path stroke="none" d="M16.5754 18.1934L15.4167 5.49953C15.3851 5.15269 15.0895 4.88729 14.7356 4.88729H12.346V3.82717C12.346 1.85141 10.7117 0.243896 8.70323 0.243896C6.69447 0.243896 5.06042 1.85141 5.06042 3.82717V4.88729H2.66899C2.31516 4.88729 2.01979 5.15269 1.98817 5.49953L0.824774 18.2432C0.807627 18.4312 0.871595 18.6176 1.00109 18.7569C1.13055 18.8963 1.3137 18.9756 1.50559 18.9756H15.8993C15.9 18.9756 15.9005 18.9756 15.9013 18.9756C16.2787 18.9756 16.5847 18.6745 16.5847 18.3032C16.5847 18.2658 16.5817 18.229 16.5755 18.1934H16.5754ZM6.42739 3.82717C6.42739 2.59273 7.44848 1.58842 8.70323 1.58842C9.95797 1.58842 10.9788 2.59273 10.9788 3.82717V4.88729H6.42739V3.82717ZM2.25326 17.631L3.29388 6.23211H5.06042V7.43427C5.06042 7.80554 5.36644 8.10653 5.74421 8.10653C6.12168 8.10653 6.42739 7.80554 6.42739 7.43427V6.23211H10.9788V7.43427C10.9788 7.80554 11.2848 8.10653 11.6625 8.10653C12.04 8.10653 12.346 7.80554 12.346 7.43427V6.23211H14.1107L15.1514 17.631H2.25326" />
  <path stroke="none" d="M8.09733 15.8537L6.76315 14.6051L4.76271 12.7317L6.09652 11.4828L8.09733 13.3559L12.0989 9.60976L13.4322 10.8584L8.09733 15.8537"/>
</svg>
